<?xml version="1.0" encoding="UTF-8" standalone="no"?>
<svg
   viewBox="0 0 1297.0481 881.48505"
   version="1.1"
   id="svg1"
   xml:space="preserve"
   width="1297.0481"
   height="881.48505"
   xmlns="http://www.w3.org/2000/svg"
   xmlns:svg="http://www.w3.org/2000/svg"><defs
     id="defs1" /><path
     style="fill:#ff0000;fill-opacity:0;stroke:#ff0000"
     d="m 610.00825,128.07275 -1.86139,-42.346647 30.71295,-47.00012 79.10912,5.118825 14.89113,-32.574342 30.2476,9.306955 48.86151,-20.00995331 37.69317,26.99016931 25.12878,46.069426 -12.56439,26.524817 23.73278,26.99017 36.7624,-1.39604 18.5608,19.2825 11.4014,64.90033 43.8516,-5.26219 35.95829,27.18798 57.007,-35.08126 42.0975,52.62188 51.7449,-10.52437 111.383,59.63813 -27.188,46.48267 25.4339,13.15547 -29.8191,24.55688 33.3272,38.58938 -17.5406,49.9908 -66.6544,0.87703 -2.6311,18.41766 -32.4502,14.90953 0.8771,47.3597 -7.0163,10.52438 -44.7286,2.63109 -132.43169,65.77736 -64.0233,44.7286 -57.00706,8.77032 74.54766,47.35969 17.5406,37.71235 86.82609,-26.31094 23.6799,14.0325 -20.1717,35.95829 -65.77739,-4.38515 -32.4501,41.22047 -42.0976,7.89329 -52.62184,42.0975 -40.34345,-28.94203 19.29469,-40.34345 -24.55688,-21.92578 -66.65438,-17.54063 -4.38516,-14.03251 74.54767,-34.20422 25.43391,-15.78657 -11.40141,-17.54063 -82.44095,1.75407 -46.48267,-22.80282 -35.08125,-37.71235 -50.86783,15.78656 -36.83532,63.14627 -43.85157,42.09751 5.26219,37.71235 -24.55688,-26.31095 -51.74485,21.92579 -43.85158,-27.18797 45.60564,-42.09751 16.6636,-76.30174 21.92578,-4.38515 57.00704,22.80281 -14.0325,-49.11376 -35.08126,-42.09751 -8.77031,-70.16251 -113.13705,-69.28548 -85.94909,26.31094 -24.55688,23.67985 -62.26923,0.87703 -29.81907,26.31094 L 73.021577,455.49764 20.536457,440.21154 0.55756741,396.50772 30.525907,340.31709 l 19.97889,-6.2434 -2.49736,-61.18535 106.137853,-76.16952 -1.24868,-74.92084 -24.97361,-49.947217 42.45514,-4.99473 86.15896,-33.714372 99.89445,31.217012 62.43403,23.72494 44.95251,-9.98945 49.94722,9.98945 21.22757,21.227567 48.69855,-9.989447 z"
     id="path1" /></svg>
